<svg width="71" height="24" viewBox="0 0 71 24" fill="none" xmlns="http://www.w3.org/2000/svg">
<g id="LineFly">
<path d="M12.52 16.848C12.328 17.344 12.024 17.736 11.608 18.024C11.208 18.312 10.728 18.456 10.168 18.456C9.624 18.456 8.8 18.12 7.696 17.448C6.608 16.776 5.736 16.344 5.08 16.152C4.648 16.728 4.16 17.208 3.616 17.592C3.072 17.976 2.696 18.168 2.488 18.168C2.328 18.168 2.008 17.824 1.528 17.136C1.048 16.432 0.808001 15.928 0.808001 15.624C0.808001 15.448 1.056 15.184 1.552 14.832C2.064 14.48 2.6 14.24 3.16 14.112C3.56 13.136 3.976 11.696 4.408 9.792C4.84 7.872 5.176 5.896 5.416 3.864C5.416 3.608 5.328 3.304 5.152 2.952C4.992 2.584 4.824 2.288 4.648 2.064L4.408 1.728L4.48 1.368C5.44 1.096 7.016 0.959999 9.208 0.959999C9.416 1.312 9.52 1.848 9.52 2.568C9.52 3.288 9.312 4.36 8.896 5.784C8.48 7.208 7.904 8.92 7.168 10.92C6.448 12.904 6.032 14.08 5.92 14.448C5.984 14.464 6.184 14.52 6.52 14.616C6.856 14.712 7.072 14.776 7.168 14.808C7.28 14.824 7.488 14.872 7.792 14.952C8.096 15.016 8.336 15.064 8.512 15.096C8.688 15.112 8.92 15.136 9.208 15.168C9.704 15.248 10.168 15.288 10.6 15.288C11.048 15.288 11.368 15.176 11.56 14.952L12.232 13.704L13.024 13.896C13.024 14.936 12.856 15.92 12.52 16.848Z" fill="#009688"/>
<path d="M18.7114 8.856C18.7114 9.528 18.4954 10.688 18.0634 12.336C17.6314 13.968 17.4154 15.04 17.4154 15.552C17.4154 16.048 17.4874 16.296 17.6314 16.296C17.7274 16.296 18.0954 16.144 18.7354 15.84L19.0234 15.696L19.4314 16.536C19.2874 16.664 19.0954 16.824 18.8554 17.016C18.6154 17.208 18.1674 17.472 17.5114 17.808C16.8554 18.128 16.2474 18.288 15.6874 18.288C15.1274 18.288 14.6874 18.12 14.3674 17.784C14.0474 17.432 13.8874 16.968 13.8874 16.392C13.8874 15.8 14.0874 14.76 14.4874 13.272C14.8874 11.768 15.0874 10.792 15.0874 10.344C15.0874 9.672 14.8794 9.04 14.4634 8.448L14.2474 8.16L14.2714 7.848C15.1194 7.608 16.4954 7.488 18.3994 7.488C18.6074 7.728 18.7114 8.184 18.7114 8.856ZM15.9754 4.872C15.6554 4.552 15.4954 4.128 15.4954 3.6C15.4954 3.072 15.7114 2.608 16.1434 2.208C16.5914 1.808 17.1034 1.608 17.6794 1.608C18.2554 1.608 18.7034 1.768 19.0234 2.088C19.3434 2.408 19.5034 2.832 19.5034 3.36C19.5034 3.872 19.2714 4.328 18.8074 4.728C18.3594 5.128 17.8554 5.328 17.2954 5.328C16.7354 5.328 16.2954 5.176 15.9754 4.872Z" fill="#009688"/>
<path d="M20.9305 18.072H20.4745C20.4745 17.32 20.6985 15.88 21.1465 13.752C21.6105 11.624 21.8425 10.416 21.8425 10.128C21.8425 9.6 21.6185 9.04 21.1705 8.448L20.9545 8.16L20.9785 7.848C21.8425 7.608 23.2265 7.488 25.1305 7.488C25.3385 7.76 25.4505 8.256 25.4665 8.976C26.8585 7.904 28.0345 7.368 28.9945 7.368C29.5705 7.368 30.0265 7.568 30.3625 7.968C30.7145 8.368 30.8905 8.872 30.8905 9.48C30.8905 10.072 30.7065 11.104 30.3385 12.576C29.9705 14.048 29.7865 15.04 29.7865 15.552C29.7865 16.048 29.8505 16.296 29.9785 16.296C30.0745 16.296 30.4105 16.144 30.9865 15.84L31.2745 15.696L31.7065 16.536C31.5625 16.664 31.3705 16.824 31.1305 17.016C30.8905 17.208 30.4425 17.472 29.7865 17.808C29.1465 18.128 28.5705 18.288 28.0585 18.288C26.8905 18.288 26.3065 17.624 26.3065 16.296C26.3065 15.736 26.4825 14.704 26.8345 13.2C27.2025 11.696 27.3865 10.728 27.3865 10.296C27.3865 9.864 27.2505 9.648 26.9785 9.648C26.5145 9.648 25.9465 9.848 25.2745 10.248C25.2265 10.52 25.0665 11.24 24.7945 12.408C24.2345 14.92 23.9545 16.696 23.9545 17.736C23.3945 17.96 22.3865 18.072 20.9305 18.072Z" fill="#009688"/>
<path d="M32.374 13.848C32.374 11.848 32.974 10.272 34.174 9.12C35.39 7.952 36.766 7.368 38.302 7.368C39.246 7.368 40.022 7.6 40.63 8.064C41.238 8.528 41.542 9.152 41.542 9.936C41.542 10.704 41.342 11.352 40.942 11.88C40.558 12.408 40.086 12.816 39.526 13.104C38.39 13.664 37.35 14.016 36.406 14.16L35.83 14.232C35.942 15.736 36.558 16.488 37.678 16.488C38.062 16.488 38.47 16.392 38.902 16.2C39.334 16.008 39.67 15.816 39.91 15.624L40.27 15.336L40.846 16.104C40.718 16.28 40.462 16.512 40.078 16.8C39.694 17.088 39.334 17.328 38.998 17.52C38.07 18.032 37.054 18.288 35.95 18.288C34.846 18.288 33.974 17.896 33.334 17.112C32.694 16.328 32.374 15.24 32.374 13.848ZM35.806 13.056C36.622 12.912 37.27 12.568 37.75 12.024C38.23 11.48 38.47 10.776 38.47 9.912C38.47 9.048 38.214 8.616 37.702 8.616C37.094 8.616 36.622 9.136 36.286 10.176C35.966 11.2 35.806 12.16 35.806 13.056Z" fill="#009688"/>
<path d="M46.9759 1.08L51.6799 1.224L54.1519 1.176C54.1999 1.416 54.2239 1.736 54.2239 2.136C54.2239 2.536 54.1599 2.824 54.0319 3C53.9199 3.176 53.7199 3.264 53.4319 3.264C53.1439 3.264 52.5279 3.224 51.5839 3.144C50.6559 3.064 49.9679 3.024 49.5199 3.024L48.6559 3.072C48.5919 3.68 48.2079 5.624 47.5039 8.904C48.7199 8.792 49.7359 8.736 50.5519 8.736C51.3679 8.736 51.9999 8.8 52.4479 8.928C52.4159 9.6 52.2719 10.176 52.0159 10.656C51.3279 10.512 50.5119 10.44 49.5679 10.44C48.6239 10.44 47.8239 10.488 47.1679 10.584C46.5759 13.48 46.2799 15.68 46.2799 17.184V17.592C45.7039 17.912 44.4879 18.072 42.6319 18.072H42.3919C42.3919 16.984 42.7599 14.72 43.4959 11.28C44.2479 7.84 44.7039 5.368 44.8639 3.864C44.8639 3.608 44.7839 3.304 44.6239 2.952C44.4639 2.584 44.2959 2.288 44.1199 2.064L43.8799 1.728L43.9519 1.368C44.8159 1.192 45.8239 1.096 46.9759 1.08Z" fill="#009688"/>
<path d="M55.4586 18.288C54.9146 18.288 54.4586 18.104 54.0906 17.736C53.7386 17.368 53.5626 16.856 53.5626 16.2C53.5626 15.528 53.9546 13.408 54.7386 9.84C55.5386 6.256 55.9386 3.672 55.9386 2.088L55.7946 1.032C57.0426 0.599999 58.2106 0.383999 59.2986 0.383999C59.4586 0.607999 59.5386 0.999999 59.5386 1.56C59.5386 2.84 59.1306 5.32 58.3146 9C57.5146 12.664 57.1146 14.8 57.1146 15.408C57.1146 16 57.1866 16.296 57.3306 16.296L59.0106 15.696L59.4426 16.536C58.8986 16.968 58.2346 17.368 57.4506 17.736C56.6826 18.104 56.0186 18.288 55.4586 18.288Z" fill="#009688"/>
<path d="M63.2496 20.592C62.7216 20.912 62.4576 21.224 62.4576 21.528C62.4576 21.832 62.6256 21.984 62.9616 21.984C63.3136 21.984 63.7056 21.816 64.1376 21.48C64.5696 21.16 64.9296 20.632 65.2176 19.896C64.4496 20.04 63.7936 20.272 63.2496 20.592ZM62.0976 18.096C60.7536 18.096 60.0816 17.36 60.0816 15.888C60.0816 15.536 60.2416 14.52 60.5616 12.84C60.8816 11.16 61.0416 9.76 61.0416 8.64C61.0416 8.4 61.0096 8.176 60.9456 7.968C61.8096 7.632 62.9936 7.464 64.4976 7.464C64.5776 7.688 64.6176 8.072 64.6176 8.616C64.6176 9.16 64.4416 10.288 64.0896 12C63.7376 13.712 63.5616 14.816 63.5616 15.312C63.5616 15.808 63.7696 16.056 64.1856 16.056C64.6816 16.056 65.2816 15.808 65.9856 15.312C66.0656 14.368 66.3856 11.88 66.9456 7.848C67.5056 7.624 68.5136 7.512 69.9696 7.512H70.4256C70.1216 8.712 69.8256 10.44 69.5376 12.696C69.2496 14.952 69.0176 16.52 68.8416 17.4C68.5056 19.16 67.8816 20.592 66.9696 21.696C66.0736 22.816 64.8976 23.376 63.4416 23.376C62.8656 23.376 62.3376 23.224 61.8576 22.92C61.3936 22.616 61.1616 22.224 61.1616 21.744C61.1616 21.104 61.5536 20.52 62.3376 19.992C63.1216 19.464 64.1776 19.056 65.5056 18.768C65.6496 18.064 65.7616 17.384 65.8416 16.728C64.5456 17.64 63.2976 18.096 62.0976 18.096Z" fill="#009688"/>
</g>
</svg>
